<svg preserveAspectRatio="none" overflow="visible" style="display: block;" width="70.3799" height="20.4681" viewBox="0 0 70.3799 20.4681" fill="none" xmlns="http://www.w3.org/2000/svg">
<g id="Group">
<path id="Vector" d="M6.41577 5.45689C6.21958 5.92619 5.94185 6.333 5.58132 6.67478C5.22078 7.01655 4.79145 7.28691 4.29332 7.4833C3.79519 7.67969 3.24738 7.77789 2.65116 7.77789H0V0.132629H2.65116C3.24738 0.132629 3.79519 0.229551 4.29332 0.422117C4.79145 0.614683 5.22078 0.882489 5.58132 1.22426C5.94185 1.56603 6.21958 1.9703 6.41577 2.43577C6.61197 2.90124 6.71006 3.4037 6.71006 3.94314C6.71006 4.48258 6.61197 4.98631 6.41577 5.45561V5.45689ZM5.59278 2.77499C5.44372 2.40389 5.23224 2.08125 4.95961 1.80834C4.68698 1.53543 4.35447 1.32118 3.96081 1.16432C3.56842 1.00747 3.13145 0.929674 2.65116 0.929674H0.862485V6.97957H2.65116C3.13145 6.97957 3.56715 6.90305 3.96081 6.75002C4.35447 6.59698 4.68698 6.38401 4.95961 6.1111C5.23224 5.8382 5.44372 5.51938 5.59278 5.15593C5.74184 4.79247 5.817 4.39586 5.817 3.9661C5.817 3.53633 5.74184 3.14737 5.59278 2.77627V2.77499Z" fill="#1D1D1B"/>
<path id="Vector_2" d="M14.0533 0.918197H9.39434V3.52868H13.5615V4.31552H9.39434V6.99104H14.1081V7.77789H8.53313V0.132629H14.0533V0.919472V0.918197Z" fill="#1D1D1B"/>
<path id="Vector_3" d="M16.5949 2.52632C16.6535 2.6717 16.7592 2.8056 16.9108 2.92547C17.0637 3.04535 17.2739 3.15502 17.544 3.25322C17.8141 3.35142 18.1581 3.44451 18.581 3.53251C19.432 3.72252 20.0588 3.98395 20.4627 4.31935C20.8665 4.65474 21.0678 5.11767 21.0678 5.70812C21.0678 6.03586 21.0029 6.33555 20.8742 6.60464C20.7455 6.87372 20.5672 7.10454 20.3391 7.29328C20.1111 7.48202 19.8384 7.62868 19.5187 7.7307C19.1989 7.83272 18.8498 7.88373 18.4715 7.88373C17.8612 7.88373 17.3019 7.78554 16.7962 7.58787C16.2904 7.3902 15.8088 7.08541 15.3502 6.67222L15.8853 6.03841C16.2853 6.40314 16.6892 6.6735 17.0968 6.85204C17.5045 7.03058 17.9733 7.11984 18.5046 7.11984C19.0358 7.11984 19.4333 6.99997 19.7429 6.75894C20.0525 6.51792 20.2066 6.20165 20.2066 5.80759C20.2066 5.62523 20.1773 5.46327 20.1187 5.32044C20.0601 5.17888 19.9582 5.0488 19.8117 4.93275C19.6652 4.8167 19.4639 4.71086 19.2053 4.61521C18.9467 4.51956 18.6167 4.42902 18.2154 4.34103C17.7784 4.24666 17.3975 4.13698 17.0726 4.01328C16.7478 3.88958 16.4802 3.74037 16.2688 3.56439C16.0573 3.38967 15.9006 3.18563 15.7987 2.95226C15.6967 2.71888 15.6458 2.44215 15.6458 2.12078C15.6458 1.79941 15.7069 1.53415 15.8318 1.2791C15.9553 1.02404 16.1299 0.803423 16.3554 0.617233C16.5809 0.431043 16.8459 0.285661 17.1516 0.179814C17.4574 0.0739663 17.7912 0.0216794 18.1555 0.0216794C18.7161 0.0216794 19.204 0.0994719 19.6231 0.25378C20.041 0.408088 20.4474 0.640188 20.8398 0.950079L20.3378 1.61577C19.9811 1.32501 19.6231 1.11331 19.2626 0.981961C18.9021 0.850608 18.5262 0.785568 18.1339 0.785568C17.8867 0.785568 17.6625 0.818726 17.4625 0.883765C17.2625 0.950079 17.0917 1.0368 16.9491 1.14647C16.8076 1.25614 16.6981 1.3875 16.6216 1.54053C16.5452 1.69356 16.507 1.85807 16.507 2.03278C16.507 2.2075 16.5363 2.37966 16.5936 2.52504L16.5949 2.52632Z" fill="#1D1D1B"/>
<path id="Vector_4" d="M23.7636 0.132629V7.77789H22.9024V0.132629H23.7636Z" fill="#1D1D1B"/>
<path id="Vector_5" d="M31.2966 7.56492C30.7769 7.79319 30.1934 7.90797 29.5449 7.90797C28.941 7.90797 28.4009 7.80594 27.9244 7.6019C27.4479 7.39786 27.0403 7.1173 26.7027 6.76149C26.3651 6.40442 26.1064 5.98613 25.9281 5.50535C25.7497 5.02457 25.6605 4.51192 25.6605 3.96482C25.6605 3.41773 25.7535 2.93823 25.9383 2.45745C26.1243 1.97667 26.3842 1.55456 26.7179 1.19111C27.0517 0.827653 27.4543 0.538165 27.9231 0.322644C28.392 0.108398 28.9143 0 29.4889 0C29.8086 0 30.1016 0.0216809 30.3666 0.0650401C30.6316 0.108399 30.8788 0.174713 31.1081 0.261431C31.3374 0.349425 31.5514 0.456548 31.7515 0.584075C31.9515 0.711602 32.1464 0.855709 32.3349 1.01512L31.7782 1.67061C31.633 1.53925 31.4801 1.42065 31.3196 1.31608C31.1591 1.21023 30.9871 1.11969 30.8011 1.04317C30.6151 0.966657 30.4112 0.906719 30.1896 0.86336C29.9679 0.820001 29.722 0.798322 29.4532 0.798322C29.0315 0.798322 28.6417 0.88249 28.2862 1.04955C27.9295 1.21789 27.6237 1.44361 27.3702 1.72799C27.1154 2.01238 26.9154 2.3465 26.7702 2.72908C26.6249 3.11167 26.5523 3.51848 26.5523 3.94824C26.5523 4.40734 26.6237 4.83328 26.7651 5.22224C26.9065 5.61248 27.1091 5.95042 27.3702 6.23353C27.6327 6.51792 27.9486 6.74109 28.3193 6.9005C28.6901 7.06118 29.1079 7.14153 29.5742 7.14153C30.0112 7.14153 30.4214 7.06628 30.8074 6.91708C31.1934 6.7666 31.517 6.58678 31.7782 6.37381V4.466H29.4545V3.70212H32.6076V6.74109C32.2509 7.05991 31.8126 7.33537 31.2928 7.56364L31.2966 7.56492Z" fill="#1D1D1B"/>
<path id="Vector_6" d="M40.1712 0.132629H41.0108V7.77789H40.3228L35.3912 1.50865V7.77789H34.5517V0.132629H35.3594L40.1712 6.25904V0.132629Z" fill="#1D1D1B"/>
<path id="Vector_7" d="M6.41577 18.0158C6.21958 18.4851 5.94185 18.8919 5.58132 19.2337C5.22078 19.5754 4.79145 19.8458 4.29332 20.0422C3.79519 20.2386 3.24738 20.3368 2.65116 20.3368H0V12.6915H2.65116C3.24738 12.6915 3.79519 12.7884 4.29332 12.981C4.79145 13.1736 5.22078 13.4414 5.58132 13.7831C5.94185 14.1249 6.21958 14.5292 6.41577 14.9947C6.61197 15.4601 6.71006 15.9626 6.71006 16.502C6.71006 17.0415 6.61197 17.5452 6.41577 18.0145V18.0158ZM5.59278 15.3339C5.44372 14.9628 5.23224 14.6401 4.95961 14.3672C4.68698 14.0943 4.35447 13.8801 3.96081 13.7232C3.56842 13.5663 3.13145 13.4886 2.65116 13.4886H0.862485V19.5384H2.65116C3.13145 19.5384 3.56715 19.4619 3.96081 19.3089C4.35447 19.1559 4.68698 18.9429 4.95961 18.67C5.23224 18.3971 5.44372 18.0783 5.59278 17.7148C5.74184 17.3514 5.817 16.9547 5.817 16.525C5.817 16.0952 5.74184 15.7063 5.59278 15.3351V15.3339Z" fill="#1D1D1B"/>
<path id="Vector_8" d="M9.47078 12.6915V20.3368H8.6083V12.6915H9.47078Z" fill="#1D1D1B"/>
<path id="Vector_9" d="M15.3731 18.2389H15.3298L12.5474 14.1542V20.3355H11.7079V12.6902H12.5806L15.3629 16.8617L18.1453 12.6902H19.018V20.3355H18.1555V14.1428L15.3731 18.2377V18.2389Z" fill="#1D1D1B"/>
<path id="Vector_10" d="M26.6976 13.4784H22.0386V16.0888H26.2058V16.8757H22.0386V19.5512H26.7524V20.338H21.1774V12.6928H26.6976V13.4796V13.4784Z" fill="#1D1D1B"/>
<path id="Vector_11" d="M34.1058 12.6915H34.9453V20.3368H34.2574L29.3258 14.0675V20.3368H28.4862V12.6915H29.2939L34.1058 18.8179V12.6915Z" fill="#1D1D1B"/>
<path id="Vector_12" d="M37.8589 15.0865C37.9175 15.2319 38.0233 15.3658 38.1749 15.4856C38.3278 15.6055 38.538 15.7152 38.808 15.8134C39.0781 15.9116 39.4221 16.0047 39.8451 16.0927C40.6961 16.2827 41.3229 16.5441 41.7267 16.8795C42.1306 17.2149 42.3319 17.6778 42.3319 18.2683C42.3319 18.596 42.2669 18.8957 42.1382 19.1648C42.0096 19.4339 41.8312 19.6647 41.6032 19.8534C41.3764 20.0435 41.1025 20.1888 40.7827 20.2909C40.4629 20.3929 40.1139 20.4439 39.7355 20.4439C39.1253 20.4439 38.566 20.3457 38.0602 20.148C37.5544 19.9504 37.0729 19.6456 36.6142 19.2324L37.1493 18.5986C37.5494 18.9633 37.9532 19.2337 38.3609 19.4122C38.7686 19.5907 39.2374 19.68 39.7686 19.68C40.2999 19.68 40.6974 19.5601 41.0069 19.3191C41.3165 19.0781 41.4707 18.7618 41.4707 18.3677C41.4707 18.1854 41.4414 18.0234 41.3828 17.8806C41.3242 17.739 41.2222 17.609 41.0757 17.4929C40.9292 17.3769 40.7279 17.271 40.4693 17.1754C40.2107 17.0797 39.8807 16.9892 39.4794 16.9012C39.0425 16.8068 38.6615 16.6971 38.3367 16.5734C38.0118 16.4497 37.7443 16.3005 37.5328 16.1245C37.3213 15.9498 37.1646 15.7458 37.0627 15.5124C36.9608 15.279 36.9098 15.0023 36.9098 14.6809C36.9098 14.3596 36.971 14.0943 37.0958 13.8393C37.2194 13.5842 37.3939 13.3636 37.6194 13.1774C37.8449 12.9912 38.1099 12.8458 38.4157 12.74C38.7214 12.6341 39.0552 12.5806 39.4196 12.5806C39.9801 12.5806 40.468 12.6584 40.8872 12.8127C41.305 12.967 41.7115 13.1991 42.1038 13.509L41.6019 14.1747C41.2452 13.8839 40.8872 13.6722 40.5266 13.5408C40.1661 13.4095 39.7903 13.3444 39.3979 13.3444C39.1507 13.3444 38.9265 13.3776 38.7265 13.4426C38.5265 13.509 38.3558 13.5957 38.2131 13.7054C38.0717 13.815 37.9621 13.9464 37.8857 14.0994C37.8092 14.2524 37.771 14.417 37.771 14.5917C37.771 14.7664 37.8003 14.9385 37.8577 15.0839L37.8589 15.0865Z" fill="#1D1D1B"/>
<path id="Vector_13" d="M45.0263 12.6915V20.3368H44.1651V12.6915H45.0263Z" fill="#1D1D1B"/>
<path id="Vector_14" d="M54.4309 18.0158C54.2411 18.4927 53.9761 18.9136 53.6346 19.277C53.2932 19.6417 52.8817 19.93 52.4014 20.1455C51.9211 20.3597 51.3899 20.4681 50.809 20.4681C50.228 20.4681 49.698 20.3623 49.2216 20.1519C48.7451 19.9402 48.3362 19.6545 47.9947 19.2949C47.6533 18.9352 47.3896 18.5157 47.2036 18.0387C47.0176 17.5618 46.9259 17.058 46.9259 16.5263C46.9259 15.9945 47.0201 15.4907 47.21 15.0138C47.3985 14.5368 47.6648 14.116 48.0062 13.7525C48.3476 13.3891 48.7591 13.0996 49.2394 12.8841C49.7197 12.6698 50.2509 12.5614 50.8319 12.5614C51.4128 12.5614 51.9428 12.6673 52.4193 12.8777C52.8957 13.0894 53.3047 13.3751 53.6461 13.7347C53.9875 14.0956 54.2513 14.5139 54.4373 14.9908C54.6233 15.4678 54.715 15.9715 54.715 16.5033C54.715 17.0351 54.6207 17.5388 54.4309 18.0158ZM53.5964 15.2905C53.4474 14.9041 53.2384 14.57 52.9696 14.2856C52.7008 14.0012 52.3823 13.7755 52.0154 13.6084C51.6485 13.4414 51.2459 13.3572 50.8102 13.3572C50.3745 13.3572 49.9719 13.4388 49.605 13.6033C49.2381 13.7666 48.9235 13.991 48.661 14.2754C48.3986 14.5598 48.1935 14.8926 48.0444 15.2752C47.8954 15.6578 47.8202 16.0672 47.8202 16.5033C47.8202 16.9394 47.8941 17.3514 48.0444 17.7378C48.1935 18.1242 48.4024 18.4583 48.6712 18.7427C48.94 19.0271 49.2585 19.2528 49.6254 19.4198C49.9923 19.5869 50.3949 19.6711 50.8306 19.6711C51.2663 19.6711 51.6689 19.5895 52.0358 19.4249C52.4027 19.2604 52.7174 19.0373 52.9798 18.7529C53.241 18.4685 53.4474 18.1356 53.5964 17.7531C53.7455 17.3705 53.8194 16.9611 53.8194 16.525C53.8194 16.0888 53.7442 15.6769 53.5964 15.2905Z" fill="#1D1D1B"/>
<path id="Vector_15" d="M62.155 12.6915H62.9946V20.3368H62.3079L57.3763 14.0675V20.3368H56.5368V12.6915H57.3445L62.1563 18.8179V12.6915H62.155Z" fill="#1D1D1B"/>
<path id="Vector_16" d="M65.9082 15.0865C65.9668 15.2319 66.0725 15.3658 66.2241 15.4856C66.377 15.6055 66.5872 15.7152 66.8573 15.8134C67.1261 15.9116 67.4714 16.0047 67.8931 16.0927C68.7441 16.2827 69.3709 16.5441 69.7747 16.8795C70.1786 17.2149 70.3799 17.6778 70.3799 18.2683C70.3799 18.596 70.3149 18.8957 70.1862 19.1648C70.0576 19.4351 69.8792 19.6647 69.6511 19.8534C69.4244 20.0435 69.1505 20.1888 68.8307 20.2909C68.5109 20.3929 68.1619 20.4439 67.7835 20.4439C67.172 20.4439 66.614 20.3457 66.1082 20.148C65.6024 19.9504 65.1209 19.6456 64.6622 19.2324L65.1973 18.5986C65.5973 18.9633 66.0012 19.2337 66.4089 19.4122C66.8165 19.5907 67.2854 19.68 67.8166 19.68C68.3479 19.68 68.7453 19.5601 69.0549 19.3191C69.3645 19.0781 69.5187 18.7618 69.5187 18.3677C69.5187 18.1854 69.4894 18.0234 69.4308 17.8806C69.3721 17.739 69.2702 17.609 69.125 17.4929C68.9785 17.3756 68.7772 17.271 68.5186 17.1754C68.26 17.0797 67.93 16.9892 67.5287 16.9012C67.0917 16.8068 66.7108 16.6971 66.3859 16.5734C66.0611 16.4497 65.7935 16.3005 65.5821 16.1245C65.3706 15.9498 65.2139 15.7458 65.112 15.5124C65.01 15.279 64.9591 15.0023 64.9591 14.6809C64.9591 14.3596 65.0202 14.0943 65.1451 13.8393C65.2687 13.5842 65.4432 13.3636 65.6687 13.1774C65.8942 12.9912 66.1592 12.8458 66.4649 12.74C66.7707 12.6341 67.1045 12.5806 67.4688 12.5806C68.0294 12.5806 68.5186 12.6584 68.9364 12.8127C69.3543 12.967 69.7607 13.1991 70.1531 13.509L69.6511 14.1747C69.2944 13.8839 68.9364 13.6722 68.5759 13.5408C68.2154 13.4095 67.8395 13.3444 67.4472 13.3444C67.2 13.3444 66.9758 13.3776 66.7758 13.4426C66.5758 13.509 66.405 13.5957 66.2624 13.7054C66.1209 13.815 66.0114 13.9464 65.9349 14.0994C65.8585 14.2524 65.8203 14.417 65.8203 14.5917C65.8203 14.7664 65.8496 14.9385 65.9069 15.0839L65.9082 15.0865Z" fill="#1D1D1B"/>
</g>
</svg>
